<svg width="64" height="64" viewBox="0 0 64 64" fill="none" xmlns="http://www.w3.org/2000/svg">
<g clip-path="url(#clip0_4634_266171)">
<path d="M30.485 49.2498H33.515C34.34 49.2498 35 49.6898 35 50.2398V55.2598H29V50.2398C29 49.6898 29.66 49.2498 30.485 49.2498V49.2498Z" stroke="black" stroke-width="1.5" stroke-miterlimit="10"/>
<path d="M31.94 2.90991C33.08 2.90991 34 3.82991 34 4.96991V11.4499C34 12.5499 33.1 13.4499 32 13.4499C30.9 13.4499 30 12.5499 30 11.4499V4.84991C30 3.77991 30.87 2.90991 31.94 2.90991Z" stroke="black" stroke-width="1.5" stroke-miterlimit="10"/>
<path d="M30 23.2205V49.2505H34V23.2205" stroke="black" stroke-width="1.5" stroke-miterlimit="10" stroke-linecap="round"/>
<path d="M21.6739 55.2693H42.3261C43.5217 55.2693 44.5 56.1693 44.5 57.2693V60.0893C44.5 60.6393 44.0109 61.0893 43.413 61.0893H20.587C19.9891 61.0893 19.5 60.6393 19.5 60.0893V57.2693C19.5 56.1693 20.4783 55.2693 21.6739 55.2693Z" stroke="black" stroke-width="1.5" stroke-miterlimit="10" stroke-linecap="round"/>
<path d="M37 12.0474C37 9.15136 34.0895 6.87593 30.8043 7.57695C29.0305 7.95619 27.594 9.26628 27.1568 10.8867C26.7945 12.2312 27.0818 13.4954 27.7938 14.4952C28.8181 15.9547 29.5052 17.5751 29.5052 19.3104V21.6203C29.5052 22.7695 30.3546 23.8267 31.5787 24.0106C33.1402 24.2405 34.5017 23.1372 34.5017 21.7467V19.092C34.5017 17.4601 35.1638 15.9317 36.1506 14.5871C36.6877 13.8631 37 12.9897 37 12.0474Z" stroke="black" stroke-width="1.5" stroke-miterlimit="10"/>
<path d="M32.0044 16.6426C34.7639 16.6426 37.0009 14.5846 37.0009 12.0458C37.0009 9.50705 34.7639 7.44897 32.0044 7.44897C29.2448 7.44897 27.0078 9.50705 27.0078 12.0458C27.0078 14.5846 29.2448 16.6426 32.0044 16.6426Z" stroke="black" stroke-width="1.5" stroke-miterlimit="10"/>
</g>
<defs>
<clipPath id="clip0_4634_266171">
<rect width="54.04" height="59.68" fill="white" transform="translate(4.98047 2.15991)"/>
</clipPath>
</defs>
</svg>
